<svg width="327" height="208" viewBox="0 0 327 208" fill="none" xmlns="http://www.w3.org/2000/svg">
<g clip-path="url(#clip0_1631_1027)">
<path d="M70.1388 0.111084H5.66602V112.909H70.1388V0.111084Z" fill="#FAFAFA"/>
<path d="M25.7513 113.988C25.7513 113.988 18.6811 63.2441 14.9865 57.6645C14.9865 57.6645 36.1101 41.8073 36.7539 -1.17651H4.70312V113.988H25.7513Z" fill="#F5F5F5"/>
<path d="M50.0475 113.768C50.0475 113.768 57.1061 63.0178 60.8065 57.444C60.8065 57.444 39.6887 41.581 39.0391 -1.39697H71.0899V113.768H50.0475Z" fill="#F5F5F5"/>
<path d="M71.8318 -4.18677H-0.308594V116.639H74.8246V-4.18677H71.8318ZM18.6226 58.5866V87.3198H5.6654V58.5866H18.6226ZM5.6654 56.5102V26.7736H18.6226V56.5102H5.6654ZM38.3484 56.5102V26.7736H54.5884V56.5102H38.3484ZM54.5884 58.5866V87.3198H38.3484V58.5866H54.5884ZM19.2084 56.5102V26.7736H36.2778V56.5102H19.2084ZM36.2778 58.5866V87.3198H19.2026V58.5866H36.2778ZM19.2026 26.24V0.140032H36.272V26.24H19.2026ZM36.272 87.836V112.921H19.2026V87.836H36.272ZM38.3484 87.836H54.5884V112.921H38.3484V87.836ZM38.3484 26.2574V0.140032H54.5884V26.24L38.3484 26.2574ZM55.1336 58.5866H68.8448V87.3198H55.1336V58.5866ZM55.1336 56.5102V26.7736H68.8448V56.5102H55.1336ZM68.8448 26.24H55.1336V0.140032H68.8448V26.24ZM18.6226 0.140032V26.24H5.6654V0.140032H18.6226ZM5.6654 87.836H18.6226V112.921H5.6654V87.836ZM55.1336 112.921V87.836H68.8448V112.921H55.1336Z" fill="#68C2C2"/>
<path d="M295.457 22.4585H99.2949V153.84H295.457V22.4585Z" fill="#C7EFEF"/>
<path d="M295.457 22.4585H99.2949V35.5839H295.457V22.4585Z" fill="#68C2C2"/>
<path d="M107.791 29.0183C107.815 29.3368 107.741 29.6549 107.581 29.9312C107.421 30.2075 107.182 30.4291 106.894 30.5672C106.606 30.7053 106.283 30.7535 105.967 30.7054C105.652 30.6574 105.358 30.5153 105.124 30.2978C104.89 30.0803 104.727 29.7974 104.657 29.486C104.586 29.1746 104.611 28.8491 104.728 28.552C104.845 28.2549 105.049 27.9999 105.313 27.8203C105.577 27.6407 105.889 27.5448 106.208 27.5451C106.613 27.531 107.007 27.6782 107.304 27.9544C107.601 28.2305 107.776 28.6132 107.791 29.0183Z" fill="#FAFAFA"/>
<path d="M112.907 29.0183C112.93 29.3368 112.857 29.6549 112.697 29.9312C112.536 30.2075 112.297 30.4291 112.009 30.5672C111.721 30.7053 111.398 30.7535 111.082 30.7054C110.767 30.6574 110.473 30.5153 110.239 30.2978C110.005 30.0803 109.842 29.7974 109.772 29.486C109.701 29.1746 109.726 28.8491 109.843 28.552C109.96 28.2549 110.164 27.9999 110.428 27.8203C110.692 27.6407 111.004 27.5448 111.323 27.5451C111.728 27.531 112.123 27.6782 112.419 27.9544C112.716 28.2305 112.891 28.6132 112.907 29.0183Z" fill="#FAFAFA"/>
<path d="M118.024 29.0183C118.047 29.3368 117.974 29.6549 117.814 29.9312C117.654 30.2075 117.414 30.4291 117.126 30.5672C116.838 30.7053 116.515 30.7535 116.2 30.7054C115.884 30.6574 115.59 30.5153 115.356 30.2978C115.123 30.0803 114.96 29.7974 114.889 29.486C114.818 29.1746 114.843 28.8491 114.96 28.552C115.077 28.2549 115.281 27.9999 115.545 27.8203C115.809 27.6407 116.121 27.5448 116.44 27.5451C116.846 27.531 117.24 27.6782 117.537 27.9544C117.833 28.2305 118.009 28.6132 118.024 29.0183Z" fill="#FAFAFA"/>
<path d="M326.509 48.4193H287.098V99.8131L326.509 100.805V48.4193Z" fill="#68C2C2"/>
<path d="M323.918 50.2521H289.432V96.8609L323.918 98.0267V50.2521Z" fill="#FAFAFA"/>
<path d="M317.879 58.7201L294.992 57.8501V90.4287H317.879V58.7201Z" fill="#68C2C2"/>
<path d="M294.992 90.4287L317.879 73.6899L294.992 57.8501V90.4287Z" fill="#F5F5F5"/>
<path d="M322.166 12.2563L300.23 11.5719V40.1775L322.166 40.7285V12.2563Z" fill="#68C2C2"/>
<path d="M320.722 13.5033L301.529 12.5927V38.5303L320.722 39.1798V13.5033Z" fill="#FAFAFA"/>
<path d="M317.364 17.3023L304.627 16.8209V34.9517H317.364V17.3023Z" fill="#68C2C2"/>
<path d="M304.627 34.9517L317.364 25.6369L304.627 16.8209V34.9517Z" fill="#F5F5F5"/>
<path d="M54.4192 186.14C64.0878 179.818 66.5412 167.702 66.431 156.763C66.431 154.936 66.663 153.016 65.822 151.392C64.981 149.768 62.9568 148.632 61.2806 149.357C59.8944 149.966 59.2564 151.526 58.456 152.837C57.3825 154.557 55.8443 155.938 54.019 156.821C52.83 157.401 51.3626 157.726 50.2142 157.065C48.6424 156.16 48.509 153.979 48.5612 152.164L48.8744 142.02C49.0311 140.207 48.8881 138.38 48.451 136.614C47.9232 134.874 46.711 133.25 44.971 132.722C43.231 132.194 41.0444 133.14 40.6326 134.909C40.5453 135.659 40.5105 136.415 40.5282 137.171C40.4586 137.919 40.0816 138.748 39.3682 138.911C38.6548 139.073 37.9066 138.574 37.3672 138.029C35.517 136.15 34.2816 133.76 33.139 131.382C31.9964 129.004 30.8596 126.58 29.1776 124.538C27.4956 122.497 25.164 120.855 22.5308 120.647C19.8976 120.438 17.0556 121.975 16.3596 124.509C15.6636 127.044 17.0788 129.689 18.6796 131.8C21.0509 134.934 23.8619 137.71 27.0258 140.042C27.6444 140.397 28.1324 140.942 28.4178 141.596C28.789 142.814 27.6 143.986 26.3762 144.357C24.9958 144.775 23.511 144.601 22.0726 144.728C20.6342 144.856 19.0682 145.447 18.494 146.776C17.6936 148.614 19.219 150.592 20.7328 151.903C23.7766 154.535 27.2489 156.626 30.9988 158.086C32.3386 158.602 33.748 159.066 34.8152 160.029C35.8824 160.991 36.503 162.644 35.8128 163.903C35.1226 165.162 33.4232 165.539 32.008 165.243C30.5928 164.947 29.3516 164.164 28.0118 163.625C25.5062 162.621 22.2118 162.72 20.5704 164.837C20.0584 165.563 19.7241 166.4 19.5941 167.279C19.4642 168.159 19.5423 169.056 19.8222 169.9C20.4015 171.582 21.3127 173.13 22.5018 174.453C26.4086 179.309 31.5287 183.046 37.344 185.288C43.144 187.434 48.5786 188.106 54.454 186.14" fill="#0B6E6E"/>
<path d="M19.0449 122.085L19.2189 122.259L19.7525 122.758C20.2281 123.187 20.9125 123.825 21.7941 124.666C24.2624 127.041 26.5482 129.598 28.6323 132.316C29.9605 134.056 31.3351 135.97 32.7735 138.081C34.2119 140.193 35.7315 142.455 37.2337 144.896C38.8257 147.437 40.2779 150.062 41.5837 152.761C42.2565 154.165 42.8539 155.632 43.4629 157.129L45.3015 161.676C47.6752 167.43 49.7201 173.315 51.4263 179.302C52.8001 184.193 53.7051 189.203 54.1291 194.266C54.4026 197.682 54.3754 201.115 54.0479 204.526C53.9261 205.733 53.8101 206.666 53.7057 207.299C53.6651 207.6 53.6303 207.838 53.6013 208.018C53.5962 208.099 53.5962 208.18 53.6013 208.261C53.632 208.185 53.6515 208.105 53.6593 208.024L53.7985 207.31C53.9203 206.678 54.0595 205.744 54.2045 204.538C54.5827 201.121 54.6448 197.677 54.3901 194.249C53.9958 189.165 53.108 184.132 51.7395 179.221C50.0467 173.218 48.0056 167.319 45.6263 161.554L43.7877 157.001C43.1787 155.51 42.5755 154.031 41.8911 152.622C40.5817 149.912 39.1196 147.278 37.5121 144.734C35.9925 142.292 34.4671 140.03 33.0171 137.919C31.5671 135.808 30.1809 133.859 28.8353 132.171C26.7233 129.456 24.3957 126.915 21.8753 124.573C20.9879 123.744 20.2803 123.117 19.7931 122.706L19.2131 122.236C19.1621 122.18 19.1058 122.13 19.0449 122.085Z" fill="#263238"/>
<path d="M41.7867 152.605C41.8814 152.356 41.9475 152.097 41.9839 151.833C42.0941 151.334 42.2275 150.609 42.3783 149.71C42.6799 147.907 43.0163 145.407 43.3759 142.646C43.7355 139.885 44.1009 137.397 44.4315 135.605C44.5939 134.706 44.7332 133.987 44.8376 133.482C44.9066 133.226 44.9474 132.964 44.9593 132.699C44.8477 132.94 44.764 133.193 44.71 133.453C44.5708 133.946 44.3909 134.665 44.1995 135.558C43.8051 137.345 43.3991 139.839 43.0395 142.6C42.6799 145.36 42.3783 147.791 42.1405 149.67C42.0245 150.522 41.9318 151.236 41.8564 151.81C41.8019 152.071 41.7786 152.338 41.7867 152.605Z" fill="#263238"/>
<path d="M18.2441 147.68C18.5526 147.753 18.8671 147.798 19.1837 147.814C19.7637 147.883 20.6685 147.976 21.7473 148.121C23.9049 148.405 26.8803 148.898 30.1283 149.583C33.3763 150.267 36.2995 151.027 38.3933 151.63C39.4431 151.92 40.2841 152.181 40.8699 152.361C41.1663 152.473 41.4734 152.555 41.7863 152.605C41.5057 152.456 41.2127 152.332 40.9105 152.233C40.3305 152.019 39.5069 151.723 38.4629 151.398C36.3807 150.737 33.4633 149.948 30.1979 149.252C26.9325 148.556 23.9513 148.092 21.7763 147.883C20.6917 147.767 19.8043 147.709 19.1953 147.68C18.879 147.65 18.5605 147.65 18.2441 147.68Z" fill="#263238"/>
<path d="M51.4492 178.78C51.5193 178.694 51.576 178.598 51.6174 178.496L52.0408 177.661C52.412 176.936 52.9108 175.874 53.514 174.546C54.7204 171.901 56.269 168.195 57.922 164.106C59.575 160.017 61.0888 156.276 62.243 153.608C62.823 152.309 63.2638 151.242 63.6118 150.453L63.9772 149.589C64.0245 149.49 64.0614 149.387 64.0874 149.281C64.0171 149.366 63.9586 149.459 63.9134 149.56C63.8032 149.786 63.6582 150.064 63.49 150.395C63.1246 151.12 62.6258 152.187 62.0226 153.509C60.8162 156.154 59.2676 159.889 57.6088 163.978C55.95 168.067 54.442 171.808 53.2936 174.476L51.9248 177.62L51.5594 178.478C51.5089 178.573 51.4718 178.675 51.4492 178.78Z" fill="#263238"/>
<path d="M20.2754 168.038C20.3709 168.098 20.4744 168.142 20.5828 168.172L21.4876 168.497L24.8284 169.657C27.6472 170.637 31.5216 172.029 35.802 173.577C40.0824 175.126 43.98 176.477 46.822 177.4C48.243 177.864 49.3972 178.223 50.1976 178.455L51.1198 178.722C51.227 178.757 51.3379 178.781 51.4504 178.792C51.3545 178.732 51.2511 178.685 51.143 178.652L50.2382 178.333L46.8974 177.173C44.0786 176.199 40.2042 174.807 35.918 173.258C31.6318 171.71 27.7458 170.358 24.898 169.43C23.477 168.972 22.3228 168.613 21.5224 168.375L20.6002 168.114C20.4959 168.074 20.3866 168.048 20.2754 168.038Z" fill="#263238"/>
<path d="M264.148 33.6292H66.6987C65.8893 33.6292 65.0878 33.7887 64.3401 34.0986C63.5925 34.4085 62.9132 34.8627 62.3411 35.4353C61.7691 36.0079 61.3155 36.6876 61.0063 37.4356C60.6971 38.1836 60.5383 38.9852 60.5391 39.7945V179.256C60.5383 180.065 60.6971 180.867 61.0063 181.615C61.3155 182.363 61.7691 183.042 62.3411 183.615C62.9132 184.187 63.5925 184.642 64.3401 184.952C65.0878 185.261 65.8893 185.421 66.6987 185.421H142.481C142.481 185.421 147.301 200.327 132.355 208.041H203.213C203.213 208.041 186.347 202.241 190.685 185.421H264.148C265.783 185.421 267.351 184.771 268.508 183.615C269.664 182.459 270.313 180.891 270.313 179.256V39.7945C270.313 38.1594 269.664 36.5912 268.508 35.435C267.351 34.2787 265.783 33.6292 264.148 33.6292Z" fill="#124848"/>
<path d="M168.269 170.701C170.954 174.54 166.749 178.745 162.91 176.06C162.782 175.969 162.67 175.857 162.579 175.729C159.9 171.89 164.099 167.69 167.938 170.37C168.067 170.46 168.179 170.572 168.269 170.701Z" fill="white"/>
<path d="M263.754 40.6761H67.0939C66.0464 40.6761 65.1973 41.5253 65.1973 42.5727V157.68C65.1973 158.727 66.0464 159.576 67.0939 159.576H263.754C264.802 159.576 265.651 158.727 265.651 157.68V42.5727C265.651 41.5253 264.802 40.6761 263.754 40.6761Z" fill="#E0E0E0"/>
<path d="M265.651 49.3877H65.1973V159.576H265.651V49.3877Z" fill="#FAFAFA"/>
<path d="M81.6391 45.2639C81.6391 45.5805 81.5452 45.89 81.3693 46.1532C81.1934 46.4165 80.9434 46.6217 80.6509 46.7428C80.3584 46.864 80.0365 46.8957 79.726 46.8339C79.4155 46.7722 79.1302 46.6197 78.9064 46.3958C78.6825 46.172 78.53 45.8867 78.4683 45.5762C78.4065 45.2657 78.4382 44.9438 78.5594 44.6513C78.6805 44.3588 78.8857 44.1088 79.1489 43.9329C79.4122 43.757 79.7217 43.6631 80.0383 43.6631C80.4629 43.6631 80.87 43.8317 81.1702 44.132C81.4704 44.4322 81.6391 44.8393 81.6391 45.2639Z" fill="#0B6E6E"/>
<path d="M71.936 45.2639C71.936 45.5805 71.8421 45.89 71.6662 46.1532C71.4903 46.4165 71.2403 46.6217 70.9478 46.7428C70.6553 46.864 70.3334 46.8957 70.0229 46.8339C69.7124 46.7722 69.4271 46.6197 69.2032 46.3958C68.9794 46.172 68.8269 45.8867 68.7651 45.5762C68.7034 45.2657 68.7351 44.9438 68.8562 44.6513C68.9774 44.3588 69.1826 44.1088 69.4458 43.9329C69.7091 43.757 70.0186 43.6631 70.3352 43.6631C70.7597 43.6631 71.1669 43.8317 71.4671 44.132C71.7673 44.4322 71.936 44.8393 71.936 45.2639Z" fill="#0B6E6E"/>
<path d="M76.5942 45.2639C76.5942 45.5805 76.5003 45.89 76.3244 46.1532C76.1485 46.4165 75.8985 46.6217 75.606 46.7428C75.3135 46.864 74.9916 46.8957 74.6811 46.8339C74.3706 46.7722 74.0853 46.6197 73.8614 46.3958C73.6376 46.172 73.4851 45.8867 73.4233 45.5762C73.3616 45.2657 73.3933 44.9438 73.5144 44.6513C73.6356 44.3588 73.8408 44.1088 74.104 43.9329C74.3673 43.757 74.6768 43.6631 74.9934 43.6631C75.4179 43.6631 75.8251 43.8317 76.1253 44.132C76.4255 44.4322 76.5942 44.8393 76.5942 45.2639Z" fill="#0B6E6E"/>
<path d="M158.744 100.115C158.744 100.202 151.402 100.277 142.348 100.277C133.294 100.277 125.945 100.202 125.945 100.115C125.945 100.028 133.288 99.9521 142.348 99.9521C151.407 99.9521 158.744 100.022 158.744 100.115Z" fill="#455A64"/>
<path d="M117.02 100.115C117.02 100.202 109.677 100.277 100.623 100.277C91.5693 100.277 84.2207 100.202 84.2207 100.115C84.2207 100.028 91.5635 99.9521 100.623 99.9521C109.683 99.9521 117.02 100.022 117.02 100.115Z" fill="#455A64"/>
<path d="M158.744 104.505C158.744 104.592 151.402 104.668 142.348 104.668C133.294 104.668 125.945 104.592 125.945 104.505C125.945 104.418 133.288 104.337 142.348 104.337C151.407 104.337 158.744 104.412 158.744 104.505Z" fill="#455A64"/>
<path d="M117.02 104.505C117.02 104.592 109.677 104.668 100.623 104.668C91.5693 104.668 84.2207 104.592 84.2207 104.505C84.2207 104.418 91.5635 104.337 100.623 104.337C109.683 104.337 117.02 104.412 117.02 104.505Z" fill="#455A64"/>
<path d="M145.602 108.89C145.602 108.983 141.205 109.058 135.776 109.058C130.348 109.058 125.945 108.983 125.945 108.89C125.945 108.797 130.348 108.728 135.776 108.728C141.205 108.728 145.602 108.803 145.602 108.89Z" fill="#455A64"/>
<path d="M103.877 108.89C103.877 108.983 99.4805 109.058 94.0517 109.058C88.6229 109.058 84.2207 108.983 84.2207 108.89C84.2207 108.797 88.6229 108.728 94.0517 108.728C99.4805 108.728 103.877 108.803 103.877 108.89Z" fill="#455A64"/>
<path d="M141.542 55.2573H125.945V57.2351H141.542V55.2573Z" fill="#124848"/>
<path d="M99.8169 55.2573H84.2207V57.2351H99.8169V55.2573Z" fill="#124848"/>
<path d="M160.218 61.6316H125.945V94.7902H160.218V61.6316Z" fill="#E0E0E0"/>
<path d="M118.493 61.6316H84.2207V94.7902H118.493V61.6316Z" fill="#E0E0E0"/>
<path d="M128.602 91.9481L138.085 74.8845L145.839 85.7943L150.549 80.0001L157.561 91.9481H128.602Z" fill="#0B6E6E"/>
<path d="M86.877 91.9481L96.36 74.8845L104.115 85.7943L108.824 80.0001L115.836 91.9481H86.877Z" fill="#0B6E6E"/>
<path d="M146.674 74.0319C148.035 74.0319 149.139 72.9283 149.139 71.5669C149.139 70.2055 148.035 69.1019 146.674 69.1019C145.313 69.1019 144.209 70.2055 144.209 71.5669C144.209 72.9283 145.313 74.0319 146.674 74.0319Z" fill="#0B6E6E"/>
<path d="M104.949 74.0319C106.311 74.0319 107.414 72.9283 107.414 71.5669C107.414 70.2055 106.311 69.1019 104.949 69.1019C103.588 69.1019 102.484 70.2055 102.484 71.5669C102.484 72.9283 103.588 74.0319 104.949 74.0319Z" fill="#0B6E6E"/>
<path d="M157.561 92.0409C157.554 91.9966 157.554 91.9517 157.561 91.9075C157.561 91.8031 157.561 91.6813 157.561 91.5189C157.561 91.1651 157.561 90.6663 157.561 90.0283C157.561 88.7117 157.561 86.8093 157.526 84.3965C157.526 79.5535 157.485 72.6573 157.456 64.3749L157.596 64.5141H128.642C128.601 64.5489 128.943 64.2067 128.798 64.3575V71.7931C128.798 74.2291 128.798 76.6187 128.798 78.9387C128.798 83.5787 128.798 87.9751 128.798 92.0119L128.653 91.8669L149.591 91.9423L155.496 91.9771H157.062H157.468H157.079H155.536L149.667 92.0119L128.636 92.0873H128.497V91.9423C128.497 87.8823 128.497 83.5149 128.497 78.8691C128.497 76.5491 128.497 74.1595 128.497 71.7235V64.3865C128.352 64.5257 128.694 64.1777 128.665 64.2183H157.619H157.758V64.3575C157.729 72.6747 157.706 79.5999 157.688 84.4661C157.688 86.8673 157.659 88.7581 157.648 90.0689C157.648 90.6953 157.648 91.1825 157.648 91.5305C157.648 91.6871 157.648 91.8089 157.648 91.9017C157.623 91.9505 157.594 91.997 157.561 92.0409Z" fill="#455A64"/>
<path d="M115.836 92.0409C115.83 91.9966 115.83 91.9517 115.836 91.9075C115.836 91.8031 115.836 91.6813 115.836 91.5189C115.836 91.1651 115.836 90.6663 115.836 90.0283C115.836 88.7117 115.836 86.8093 115.801 84.3965C115.801 79.5535 115.761 72.6573 115.732 64.3749L115.871 64.5141H86.9173C86.8767 64.5489 87.2189 64.2067 87.0739 64.3575V71.7931C87.0739 74.2291 87.0739 76.6187 87.0739 78.9387C87.0739 83.5787 87.0739 87.9751 87.0739 92.0119L86.9289 91.8669L107.867 91.9423L113.771 91.9771H115.337H115.743H115.355H113.812L107.942 92.0119L86.9115 92.0873H86.7723V91.9423C86.7723 87.8823 86.7723 83.5149 86.7723 78.8691C86.7723 76.5491 86.7723 74.1595 86.7723 71.7235V64.3865C86.6273 64.5257 86.9695 64.1777 86.9405 64.2183H115.894H116.033V64.3575C116.004 72.6747 115.981 79.5999 115.964 84.4661C115.964 86.8673 115.935 88.7581 115.923 90.0689C115.923 90.6953 115.923 91.1825 115.923 91.5305C115.923 91.6871 115.923 91.8089 115.923 91.9017C115.898 91.9505 115.869 91.997 115.836 92.0409Z" fill="#455A64"/>
<path d="M200.528 100.115C200.528 100.202 193.185 100.277 184.125 100.277C175.066 100.277 167.729 100.202 167.729 100.115C167.729 100.028 175.066 99.9521 184.125 99.9521C193.185 99.9521 200.528 100.022 200.528 100.115Z" fill="#455A64"/>
<path d="M200.528 104.505C200.528 104.592 193.185 104.668 184.125 104.668C175.066 104.668 167.729 104.592 167.729 104.505C167.729 104.418 175.066 104.337 184.125 104.337C193.185 104.337 200.528 104.412 200.528 104.505Z" fill="#455A64"/>
<path d="M187.385 108.89C187.385 108.983 182.983 109.058 177.554 109.058C172.125 109.058 167.74 108.983 167.74 108.89C167.74 108.797 172.137 108.728 177.565 108.728C182.994 108.728 187.385 108.803 187.385 108.89Z" fill="#455A64"/>
<path d="M183.325 55.2573H167.729V57.2351H183.325V55.2573Z" fill="#124848"/>
<path d="M202.001 61.6316H167.729V94.7902H202.001V61.6316Z" fill="#E0E0E0"/>
<path d="M170.385 91.9481L179.862 74.8845L187.617 85.7943L192.332 80.0001L199.338 91.9481H170.385Z" fill="#0B6E6E"/>
<path d="M190.942 71.5669C190.943 72.0561 190.799 72.5346 190.528 72.9418C190.257 73.349 189.871 73.6666 189.419 73.8543C188.967 74.0421 188.47 74.0915 187.99 73.9963C187.51 73.9012 187.07 73.6657 186.724 73.3198C186.378 72.974 186.142 72.5332 186.047 72.0533C185.952 71.5735 186.001 71.0762 186.189 70.6245C186.377 70.1728 186.695 69.787 187.102 69.5159C187.509 69.2449 187.987 69.1008 188.477 69.1019C189.13 69.1019 189.757 69.3616 190.22 69.8239C190.682 70.2862 190.942 70.9132 190.942 71.5669Z" fill="#0B6E6E"/>
<path d="M199.338 92.0409C199.338 92.0409 199.338 91.9945 199.338 91.9075C199.338 91.8205 199.338 91.6813 199.338 91.5189C199.338 91.1651 199.338 90.6663 199.338 90.0283C199.338 88.7117 199.338 86.8093 199.303 84.3965C199.303 79.5535 199.257 72.6573 199.228 64.3749L199.367 64.5141H170.414C170.373 64.5489 170.721 64.2067 170.576 64.3575V71.7931C170.576 74.2291 170.576 76.6187 170.576 78.9387C170.576 83.5787 170.576 87.9751 170.576 92.0119L170.437 91.8669L191.375 91.9423L197.279 91.9771H198.845H199.251H198.857H197.32L191.444 92.0119L170.419 92.0873H170.274V91.9423C170.274 87.8823 170.274 83.5149 170.274 78.8691V64.3865C170.124 64.5257 170.472 64.1777 170.437 64.2183H199.39H199.535V64.3575C199.501 72.6747 199.477 79.5999 199.46 84.4661C199.46 86.8673 199.431 88.7581 199.425 90.0689C199.425 90.6953 199.425 91.1825 199.425 91.5305C199.425 91.6871 199.425 91.8089 199.425 91.9017C199.404 91.9526 199.375 91.9997 199.338 92.0409Z" fill="#455A64"/>
<path d="M142.637 115.009H127.041V116.987H142.637V115.009Z" fill="#455A64"/>
<path d="M100.913 115.009H85.3164V116.987H100.913V115.009Z" fill="#455A64"/>
<path d="M161.313 121.377H127.041V154.536H161.313V121.377Z" fill="#E0E0E0"/>
<path d="M119.589 121.377H85.3164V154.536H119.589V121.377Z" fill="#E0E0E0"/>
<path d="M129.699 151.7L139.182 134.636L146.937 145.54L151.646 139.752L158.659 151.7H129.699Z" fill="#0B6E6E"/>
<path d="M87.9727 151.7L97.4557 134.636L105.21 145.54L109.92 139.752L116.932 151.7H87.9727Z" fill="#0B6E6E"/>
<path d="M150.242 131.319C150.242 131.807 150.097 132.285 149.826 132.691C149.554 133.098 149.169 133.414 148.717 133.601C148.266 133.788 147.769 133.837 147.29 133.742C146.81 133.647 146.37 133.411 146.024 133.066C145.679 132.72 145.444 132.28 145.348 131.801C145.253 131.321 145.302 130.824 145.489 130.373C145.676 129.922 145.993 129.536 146.399 129.264C146.805 128.993 147.283 128.848 147.772 128.848C148.096 128.847 148.418 128.91 148.718 129.034C149.018 129.158 149.291 129.34 149.52 129.57C149.75 129.799 149.932 130.072 150.056 130.372C150.18 130.672 150.243 130.994 150.242 131.319Z" fill="#0B6E6E"/>
<path d="M108.518 131.319C108.518 131.807 108.373 132.285 108.101 132.691C107.83 133.098 107.444 133.414 106.993 133.601C106.541 133.788 106.044 133.837 105.565 133.742C105.086 133.647 104.645 133.411 104.3 133.066C103.954 132.72 103.719 132.28 103.624 131.801C103.528 131.321 103.577 130.824 103.764 130.373C103.951 129.922 104.268 129.536 104.674 129.264C105.081 128.993 105.558 128.848 106.047 128.848C106.372 128.847 106.693 128.91 106.993 129.034C107.294 129.158 107.566 129.34 107.796 129.57C108.025 129.799 108.207 130.072 108.331 130.372C108.455 130.672 108.519 130.994 108.518 131.319Z" fill="#0B6E6E"/>
<path d="M158.658 151.793C158.658 151.793 158.658 151.74 158.658 151.653C158.658 151.566 158.658 151.427 158.658 151.265C158.658 150.917 158.658 150.418 158.658 149.774C158.658 148.463 158.658 146.561 158.617 144.142C158.617 139.299 158.577 132.403 158.548 124.127L158.687 124.266H129.733L129.896 124.103V126C129.896 126.626 129.896 127.253 129.896 127.873V138.714C129.896 143.354 129.896 147.744 129.896 151.787L129.751 151.642L150.689 151.717L156.593 151.752H158.165H158.571C158.617 151.747 158.664 151.747 158.71 151.752H158.194H156.657L150.781 151.793L129.751 151.862H129.611V151.723C129.611 147.663 129.611 143.29 129.611 138.65C129.611 136.33 129.611 133.948 129.611 131.504V124.127L129.78 123.958H158.733H158.872V124.103C158.843 132.421 158.82 139.346 158.803 144.212C158.803 146.613 158.803 148.504 158.768 149.809C158.768 150.441 158.768 150.928 158.768 151.276C158.768 151.427 158.768 151.549 158.768 151.648C158.743 151.704 158.705 151.754 158.658 151.793Z" fill="#455A64"/>
<path d="M116.933 151.793C116.933 151.793 116.933 151.74 116.933 151.653C116.933 151.566 116.933 151.427 116.933 151.265C116.933 150.917 116.933 150.418 116.933 149.774C116.933 148.463 116.933 146.561 116.893 144.142C116.893 139.299 116.852 132.403 116.823 124.127L116.962 124.266H88.0085L88.1709 124.103V126C88.1709 126.626 88.1709 127.253 88.1709 127.873V138.714C88.1709 143.354 88.1709 147.744 88.1709 151.787L88.0259 151.642L108.964 151.717L114.868 151.752H116.44H116.846C116.892 151.747 116.939 151.747 116.985 151.752H116.469H114.932L109.057 151.793L88.0259 151.862H87.8867V151.723C87.8867 147.663 87.8867 143.29 87.8867 138.65C87.8867 136.33 87.8867 133.948 87.8867 131.504V124.127L88.0549 123.958H117.009H117.148V124.103C117.119 132.421 117.096 139.346 117.078 144.212C117.078 146.613 117.078 148.504 117.043 149.809C117.043 150.441 117.043 150.928 117.043 151.276C117.043 151.427 117.043 151.549 117.043 151.648C117.019 151.704 116.981 151.754 116.933 151.793Z" fill="#455A64"/>
<path d="M184.45 115.009H168.854V116.987H184.45V115.009Z" fill="#455A64"/>
<path d="M203.126 121.377H168.854V154.536H203.126V121.377Z" fill="#E0E0E0"/>
<path d="M171.51 151.7L180.993 134.636L188.747 145.54L193.457 139.752L200.469 151.7H171.51Z" fill="#0B6E6E"/>
<path d="M192.049 131.319C192.048 131.806 191.902 132.282 191.631 132.686C191.359 133.091 190.974 133.406 190.523 133.592C190.073 133.777 189.577 133.825 189.1 133.73C188.622 133.634 188.183 133.399 187.839 133.054C187.495 132.709 187.261 132.269 187.166 131.791C187.071 131.313 187.121 130.818 187.307 130.368C187.494 129.918 187.81 129.533 188.215 129.263C188.621 128.992 189.097 128.848 189.584 128.848C189.908 128.848 190.229 128.912 190.529 129.036C190.828 129.16 191.1 129.342 191.329 129.572C191.558 129.801 191.74 130.074 191.863 130.373C191.987 130.673 192.05 130.994 192.049 131.319Z" fill="#0B6E6E"/>
<path d="M200.47 151.793C200.466 151.746 200.466 151.7 200.47 151.653C200.47 151.555 200.47 151.427 200.47 151.265C200.47 150.917 200.47 150.418 200.47 149.774C200.47 148.463 200.47 146.561 200.435 144.142C200.435 139.299 200.395 132.403 200.366 124.127L200.505 124.266H171.546L171.708 124.103V131.551C171.708 133.987 171.708 136.368 171.708 138.696C171.708 143.336 171.708 147.727 171.708 151.769L171.563 151.624L192.501 151.7L198.405 151.735H199.971H200.377H200.522H200.006H198.463L192.594 151.775L171.563 151.845H171.418V151.706C171.418 147.646 171.418 143.272 171.418 138.632C171.418 136.312 171.418 133.93 171.418 131.487V124.127L171.58 123.958H200.54H200.679V124.103C200.65 132.421 200.627 139.346 200.609 144.212C200.609 146.613 200.58 148.504 200.569 149.809C200.569 150.441 200.569 150.928 200.569 151.276C200.569 151.427 200.569 151.549 200.569 151.648C200.54 151.699 200.507 151.747 200.47 151.793Z" fill="#455A64"/>
<path d="M227.59 115.009H211.994V116.987H227.59V115.009Z" fill="#455A64"/>
<path d="M246.266 121.377H211.994V154.536H246.266V121.377Z" fill="#E0E0E0"/>
<path d="M214.652 151.7L224.135 134.636L231.89 145.54L236.6 139.752L243.612 151.7H214.652Z" fill="#0B6E6E"/>
<path d="M235.194 131.319C235.194 131.807 235.049 132.285 234.777 132.691C234.506 133.098 234.12 133.414 233.668 133.601C233.217 133.788 232.72 133.837 232.241 133.742C231.761 133.647 231.321 133.411 230.976 133.066C230.63 132.72 230.395 132.28 230.299 131.801C230.204 131.321 230.253 130.824 230.44 130.373C230.627 129.922 230.944 129.536 231.35 129.264C231.756 128.993 232.234 128.848 232.723 128.848C233.047 128.847 233.369 128.91 233.669 129.034C233.969 129.158 234.242 129.34 234.472 129.57C234.701 129.799 234.883 130.072 235.007 130.372C235.131 130.672 235.194 130.994 235.194 131.319Z" fill="#0B6E6E"/>
<path d="M243.611 151.793C243.611 151.793 243.611 151.74 243.611 151.653C243.611 151.566 243.611 151.427 243.611 151.265C243.611 150.917 243.611 150.418 243.611 149.774C243.611 148.463 243.611 146.561 243.57 144.142C243.57 139.299 243.53 132.403 243.501 124.127L243.64 124.266H214.686L214.849 124.103V138.696C214.849 143.336 214.849 147.727 214.849 151.769L214.704 151.624L235.642 151.7L241.546 151.735H243.118H243.518C243.566 151.73 243.615 151.73 243.663 151.735H243.147H241.61L235.734 151.775L214.704 151.845H214.564V151.706C214.564 147.646 214.564 143.272 214.564 138.632C214.564 136.312 214.564 133.93 214.564 131.487V124.127L214.733 123.958H243.686H243.825V124.103C243.796 132.421 243.773 139.346 243.756 144.212C243.756 146.613 243.727 148.504 243.721 149.809C243.721 150.441 243.721 150.928 243.721 151.276C243.721 151.427 243.721 151.549 243.721 151.648C243.696 151.704 243.659 151.754 243.611 151.793Z" fill="#455A64"/>
<path d="M243.059 94.7843C244.305 94.624 245.562 94.5697 246.817 94.6219L246.655 94.7843V94.4131C246.655 94.2855 246.655 94.1637 246.655 94.0419C246.655 93.7983 246.655 93.5663 246.655 93.3343C246.655 92.9225 246.655 92.5223 246.689 92.1395C246.672 91.7684 246.711 91.3968 246.805 91.0375C246.892 91.3981 246.929 91.7689 246.916 92.1395C246.916 92.5223 246.916 92.9225 246.95 93.3343C246.95 93.5663 246.95 93.7983 246.95 94.0419V94.7843L246.782 94.9525C245.538 95.0062 244.292 94.9499 243.059 94.7843Z" fill="#455A64"/>
<path d="M225.967 94.7844C228.812 94.5678 231.67 94.5678 234.516 94.7844C231.671 95.0086 228.812 95.0086 225.967 94.7844Z" fill="#455A64"/>
<path d="M213.659 91.0259C213.823 92.2716 213.877 93.5292 213.822 94.7843L213.659 94.6219H215.127L216.321 94.6567C216.692 94.647 217.063 94.686 217.423 94.7727C217.064 94.8666 216.692 94.9057 216.321 94.8887L215.127 94.9235H214.419H213.659L213.497 94.7553C213.446 93.5099 213.501 92.2623 213.659 91.0259Z" fill="#455A64"/>
<path d="M213.66 73.9333C213.824 75.3519 213.878 76.781 213.823 78.208C213.879 79.6329 213.824 81.0601 213.66 82.4768C213.5 81.0599 213.445 79.6329 213.498 78.208C213.446 76.781 213.5 75.3522 213.66 73.9333Z" fill="#455A64"/>
<path d="M217.423 61.6199C216.175 61.7835 214.916 61.8379 213.659 61.7823L213.821 61.6199V62.3681C213.821 62.6059 213.821 62.8437 213.821 63.0757C213.821 63.4875 213.821 63.8819 213.786 64.2705C213.803 64.6416 213.764 65.0131 213.67 65.3725C213.576 65.0131 213.537 64.6416 213.554 64.2705C213.554 63.8819 213.554 63.4875 213.52 63.0757C213.52 62.8437 213.52 62.6059 213.52 62.3681C213.52 62.2463 213.52 62.1187 213.52 61.9911V61.6199L213.682 61.4575C214.931 61.4067 216.183 61.461 217.423 61.6199Z" fill="#455A64"/>
<path d="M234.516 61.6199C231.67 61.8365 228.812 61.8365 225.967 61.6199C228.812 61.4034 231.67 61.4034 234.516 61.6199Z" fill="#455A64"/>
<path d="M246.825 65.39C246.657 64.1427 246.601 62.883 246.656 61.6258C246.987 61.9506 246.749 61.7186 246.819 61.7882H246.042H245.334L244.139 61.7534C243.768 61.7703 243.397 61.7312 243.037 61.6374C243.397 61.5435 243.768 61.5044 244.139 61.5214L245.334 61.4866H246.795L246.964 61.649C247.022 62.8977 246.976 64.1491 246.825 65.39Z" fill="#455A64"/>
<path d="M246.824 82.4999C246.656 81.0836 246.6 79.6563 246.656 78.2311C246.6 76.8041 246.656 75.3748 246.824 73.9565C246.984 75.3754 247.039 76.8042 246.986 78.2311C247.039 79.6561 246.984 81.083 246.824 82.4999Z" fill="#455A64"/>
<path d="M246.342 100.068C246.342 100.155 238.993 100.231 229.94 100.231C220.886 100.231 213.537 100.155 213.537 100.068C213.537 99.9812 220.88 99.9058 229.94 99.9058C238.999 99.9058 246.342 99.9754 246.342 100.068Z" fill="#455A64"/>
<path d="M246.342 104.459C246.342 104.546 238.994 104.621 229.94 104.621C220.886 104.621 213.561 104.54 213.561 104.459C213.561 104.378 220.903 104.291 229.963 104.291C239.023 104.291 246.342 104.366 246.342 104.459Z" fill="#455A64"/>
<path d="M229.133 55.2109H213.537V57.1887H229.133V55.2109Z" fill="#124848"/>
</g>
<defs>
<clipPath id="clip0_1631_1027">
<rect width="327" height="208" fill="white"/>
</clipPath>
</defs>
</svg>
